# AST/ASF file generated using VICON BodyLanguage
# -----------------------------------------------
:version 1.10
:name VICON
:units
  mass 1.0
  length 0.45
  angle deg
:documentation
   .ast/.asf automatically generated from VICON data using
   VICON BodyBuilder and BodyLanguage model FoxedUp or BRILLIANT.MOD
:root
   order TX TY TZ RX RY RZ
   axis XYZ
   position 0 0 0  
   orientation 0 0 0 
:bonedata
  begin
     id 1 
     name lhipjoint
     direction 0.577973 -0.728611 0.367523 
     length 2.48544 
     axis 0 0 0  XYZ
  end
  begin
     id 2 
     name lfemur
     direction 0.34202 -0.939693 0  
     length 7.1921  
     axis 0 0 20  XYZ
    dof rx ry rz
    limits (-160.0 20.0)
           (-70.0 70.0)
           (-60.0 70.0)
  end
  begin
     id 3 
     name ltibia
     direction 0.34202 -0.939693 0   
     length 7.71059   
     axis 0 0 20   XYZ
    dof rx
    limits (-10.0 170.0)
  end
  begin
     id 4 
     name lfoot
     direction 0.089538 -0.246004 0.965124   
     length 2.19909   
     axis -90 7.62852e-016 20   XYZ
    dof rx rz
    limits (-45.0 90.0)
           (-70.0 20.0)
  end
  begin
     id 5 
     name ltoes
     direction 1.53544e-011 -4.21829e-011 1   
     length 1.10116   
     axis -90 7.62852e-016 20   XYZ
    dof rx
    limits (-90.0 20.0)
  end
  begin
     id 6 
     name rhipjoint
     direction -0.554414 -0.743062 0.374812   
     length 2.4371  
     axis 0 0 0  XYZ 
  end
  begin
     id 7 
     name rfemur
     direction -0.34202 -0.939693 0   
     length 7.47254   
     axis 0 0 -20   XYZ
    dof rx ry rz
    limits (-160.0 20.0)
           (-70.0 70.0)
           (-70.0 60.0)
  end
  begin
     id 8 
     name rtibia
     direction -0.34202 -0.939693 0   
     length 7.65855   
     axis 0 0 -20   XYZ
    dof rx
    limits (-10.0 170.0)
 end
 begin
     id 9 
     name rfoot
     direction -0.133779 -0.367555 0.92033   
     length 2.43006  
     axis -90 -7.62852e-016 -20   XYZ
    dof rx rz
    limits (-45.0 90.0)
           (-20.0 70.0)
  end
  begin
     id 10 
     name rtoes
     direction -1.53563e-011 -4.21889e-011 1   
     length 1.19625   
     axis -90 -7.62852e-016 -20   XYZ
    dof rx
    limits (-90.0 20.0)
  end
  begin
     id 11 
     name lowerback
     direction 0.0249066 0.998043 -0.0573585   
     length 2.08485   
     axis 0 0 0   XYZ
    dof rx ry rz
    limits (-20.0 45.0)
           (-30.0 30.0)
           (-30.0 30.0)
  end
  begin
     id 12 
     name upperback
     direction 0.0237884 0.999673 0.00943178   
     length 2.08515   
     axis 0 0 0   XYZ
    dof rx ry rz
    limits (-20.0 45.0)
           (-30.0 30.0)
           (-30.0 30.0)
  end
  begin
     id 13 
     name thorax
     direction 0.0106671 0.999301 0.0358174   
     length 2.09037   
     axis 0 0 0   XYZ
    dof rx ry rz
    limits (-20.0 45.0)
           (-30.0 30.0)
           (-30.0 30.0)
  end
  begin
     id 14 
     name lowerneck
     direction -0.0580016 0.987052 0.149546   
     length 1.84454   
     axis 0 0 0   XYZ
    dof rx ry rz
    limits (-20.0 45.0)
           (-30.0 30.0)
           (-30.0 30.0)
  end
  begin
     id 15 
     name upperneck
     direction 0.079456 0.981963 -0.171567   
     length 1.88141   
     axis 0 0 0   XYZ
    dof rx ry rz
    limits (-20.0 45.0)
           (-30.0 30.0)
           (-30.0 30.0)
  end
  begin
     id 16
     name head
     direction 0.0262167 0.9967 -0.0768276  
     length 1.89541  
     axis 0 0 0   XYZ
    dof rx ry rz
    limits (-20.0 45.0)
           (-30.0 30.0)
           (-30.0 30.0)
  end
  begin
     id 17 
     name lclavicle
     direction 0.946135 0.322134 -0.0325326  
     length 3.949  
     axis 0 0 0   XYZ
    dof ry rz
    limits (-20.0 10.0)
           (0.0 20.0)
  end
  begin
     id 18 
     name lhumerus
     direction 1 -4.48964e-011 1.94005e-028   
     length 5.10995   
     axis 180 -30 -90   XYZ
    dof rx ry rz
    limits (-60.0 90.0)
           (-90.0 90.0)
           (-90.0 90.0)
  end
  begin
     id 19
     name lradius
     direction 1 -4.48976e-011 2.87852e-027   
     length 3.21207   
     axis 180 -30 -90   XYZ
    dof rx
    limits (-10.0 170.0)
  end
  begin
     id 20
     name lwrist
     direction 1 -4.48963e-011 1.9975e-027   
     length 1.60604   
     axis 2.96054e-016 90 90   XYZ
    dof ry
    limits (-180.0 0.0)
 end
  begin
     id 21 
     name lhand
     direction 1 -4.48919e-011 4.00227e-027   
     length 0.63349   
     axis -2.5488e-015 90 90   XYZ
    dof rx rz
    limits (-90.0 90.0)
           (-45.0 45.0)
  end
  begin
     id 22 
     name lfingers
     direction 1 -4.49037e-011 7.9652e-027   
     length 0.510736   
     axis -5.0975e-015 90 90   XYZ
    dof rx
    limits (0.0 90.0)
  end
  begin
     id 23
     name lthumb
     direction 0.707107 -6.34922e-011 0.707107   
     length 0.733318   
     axis -90 45 -4.48553e-014   XYZ
    dof rx rz
    limits (-45.0 45.0)
           (-45.0 45.0)
  end
  begin
     id 24 
     name rclavicle
     direction -0.940085 0.328911 -0.0897654   
     length 3.93848  
     axis 0 0 0   XYZ 
    dof ry rz
    limits (-10.0 20.0)
           (-20.0 0.0)
  end
  begin
     id 25 
     name rhumerus
     direction -1 -4.48958e-011 3.02044e-027  
     length 5.25109   
     axis 180 30 90   XYZ
    dof rx ry rz
    limits (-90.0 60.0)
           (-90.0 90.0)
           (-90.0 90.0)
  end
  begin
     id 26 
     name rradius
     direction -1 -4.4897e-011 9.78352e-028   
     length 3.28364   
     axis 180 30 90   XYZ
    dof rx
    limits (-10.0 170.0)
  end
  begin
     id 27 
     name rwrist
     direction -1 -4.48943e-011 1.99918e-027   
     length 1.64182   
     axis 2.96054e-016 -90 -90   XYZ
    dof ry
    limits (-180.0 0.0)
  end
  begin
     id 28
     name rhand
     direction -1 -4.49024e-011 3.98478e-027   
     length 0.599745   
     axis -2.5488e-015 -90 -90   XYZ
    dof rx rz
    limits (-90.0 90.0)
           (-45.0 45.0)
  end
  begin
     id 29
     name rfingers
     direction -1 -4.48914e-011 8.00621e-027   
     length 0.48353   
     axis -5.0975e-015 -90 -90   XYZ
    dof rx
    limits (0.0 90.0)
  end
  begin
     id 30
     name rthumb
     direction -0.707107 -6.34992e-011 0.707107   
     length 0.694255   
     axis -90 -45 4.48553e-014   XYZ
    dof rx rz
    limits (-45.0 45.0)
           (-45.0 45.0)
  end
:hierarchy
  begin
    root lhipjoint rhipjoint lowerback
    lhipjoint lfemur
    lfemur ltibia
    ltibia lfoot
    lfoot ltoes
    rhipjoint rfemur
    rfemur rtibia
    rtibia rfoot
    rfoot rtoes
    lowerback upperback
    upperback thorax
    thorax lowerneck lclavicle rclavicle
    lowerneck upperneck
    upperneck head
    lclavicle lhumerus
    lhumerus lradius
    lradius lwrist
    lwrist lhand lthumb
    lhand lfingers
    rclavicle rhumerus
    rhumerus rradius
    rradius rwrist
    rwrist rhand rthumb
    rhand rfingers
  end

#!OML:ASF E:\CV Data\Top Level 1\Subject 1\Session 1\player.ASF
:FULLY-SPECIFIED
:DEGREES
124
root 7.9764 17.2097 -9.57279 138.774 -84.6473 -130.818
lowerback 9.79406 2.12078 3.79662
upperback 1.20281 3.2264 1.49634
thorax -4.11005 1.51871 -0.995259
lowerneck -16.0252 11.9139 -2.60215
upperneck 19.125 16.6511 1.46348
head 8.20432 7.79091 2.76771
rclavicle -3.38928e-014 -1.98785e-015
rhumerus -40.272 40.1839 -105.401
rradius 93.5501
rwrist -8.41551
rhand -33.61 25.9655
rfingers 7.12502
rthumb -6.80309 -3.90519
lclavicle -3.38928e-014 -1.98785e-015
lhumerus -42.239 -36.3403 111.935
lradius 88.4403
lwrist -0.565463
lhand -32.3926 9.31514
lfingers 7.12502
lthumb -5.62779 39.2204
rfemur -29.7225 5.85447 29.7583
rtibia 39.8076
rfoot -16.5704 -1.76717
rtoes 17.5519
lfemur -28.0002 4.34107 -12.1695
ltibia 40.5658
lfoot -15.2407 8.14173
ltoes 2.76414
125
root 8.007 17.2112 -9.58678 136.872 -84.8397 -128.822
lowerback 9.87632 2.07715 3.80344
upperback 1.21962 3.17142 1.47636
thorax -4.13908 1.49062 -1.01598
lowerneck -16.0396 11.8885 -2.65244
upperneck 19.005 16.6279 1.44924
head 8.16403 7.78052 2.76239
rclavicle -5.97348e-014 -3.57812e-015
rhumerus -40.2262 40.1602 -105.388
rradius 93.5787
rwrist -8.46186
rhand -33.7594 25.9717
rfingers 7.12502
rthumb -6.94733 -3.89431
lclavicle -5.97348e-014 -3.57812e-015
lhumerus -42.1117 -36.3849 111.917
lradius 88.4641
lwrist -0.498172
lhand -32.3918 9.35254
lfingers 7.12502
lthumb -5.627 39.2578
rfemur -29.9398 5.73503 29.7754
rtibia 39.7853
rfoot -16.4392 -1.90078
rtoes 17.571
lfemur -28.2503 4.22636 -12.1516
ltibia 40.5785
lfoot -15.4118 8.07713
ltoes 2.57348
126
root 8.03818 17.2122 -9.60082 134.704 -85.0326 -126.561
lowerback 9.95664 2.03168 3.80986
upperback 1.23578 3.11398 1.45845
thorax -4.16798 1.46133 -1.03383
lowerneck -16.0526 11.8604 -2.69137
upperneck 18.8899 16.6011 1.42242
head 8.12753 7.76748 2.75153
rclavicle -2.0276e-014 8.34896e-015
rhumerus -40.1684 40.1406 -105.366
rradius 93.6031
rwrist -8.49478
rhand -33.9101 25.976
rfingers 7.12502
rthumb -7.09277 -3.8852
lclavicle -2.0276e-014 8.34896e-015
lhumerus -41.9866 -36.432 111.913
lradius 88.4808
lwrist -0.428712
lhand -32.3962 9.40816
lfingers 7.12502
lthumb -5.63123 39.3133
rfemur -30.1612 5.59636 29.7952
rtibia 39.769
rfoot -16.3117 -2.02513
rtoes 17.6174
lfemur -28.5021 4.1423 -12.1375
ltibia 40.6055
lfoot -15.6582 7.98701
ltoes 2.29945
127
root 8.06994 17.2129 -9.61495 132.272 -85.2176 -124.036
lowerback 10.0305 1.98617 3.81604
upperback 1.25041 3.05641 1.44475
thorax -4.1952 1.43205 -1.04683
lowerneck -16.068 11.8312 -2.72469
upperneck 18.7848 16.5723 1.3936
head 8.09559 7.75316 2.73985
rclavicle -2.29596e-014 1.07344e-014
rhumerus -40.0974 40.1273 -105.336
rradius 93.619
rwrist -8.52337
rhand -34.057 25.9878
rfingers 7.12502
rthumb -7.23462 -3.86852
lclavicle -2.29596e-014 1.07344e-014
lhumerus -41.8406 -36.447 111.922
lradius 88.4671
lwrist -0.369282
lhand -32.4514 9.47976
lfingers 7.12502
lthumb -5.68457 39.3835
rfemur -30.3899 5.44201 29.8223
rtibia 39.7588
rfoot -16.1827 -2.13764
rtoes 17.6493
lfemur -28.7527 4.05921 -12.1187
ltibia 40.6438
lfoot -15.9735 7.90838
ltoes 1.92652
128
root 8.10211 17.2132 -9.62903 129.615 -85.3935 -121.29
lowerback 10.1024 1.94695 3.82651
upperback 1.2644 3.00744 1.42632
thorax -4.22114 1.40698 -1.06808
lowerneck -16.0864 11.7964 -2.73667
upperneck 18.6969 16.5321 1.36092
head 8.07244 7.73361 2.72417
rclavicle -1.87852e-014 7.95139e-016
rhumerus -40.0083 40.0997 -105.296
rradius 93.6241
rwrist -8.54895
rhand -34.2024 26.0082
rfingers 7.12502
rthumb -7.37493 -3.84324
lclavicle -1.87852e-014 7.95139e-016
lhumerus -41.6974 -36.4805 111.925
lradius 88.4559
lwrist -0.271767
lhand -32.5127 9.58213
lfingers 7.12502
lthumb -5.7437 39.4843
rfemur -30.6202 5.27727 29.8508
rtibia 39.7577
rfoot -16.0549 -2.23614
rtoes 17.6891
lfemur -28.9952 4.01527 -12.1071
ltibia 40.692
lfoot -16.3543 7.82174
ltoes 1.39051
129
root 8.13448 17.2132 -9.64279 126.721 -85.5609 -118.321
lowerback 10.1767 1.90552 3.83711
upperback 1.28098 2.95558 1.40955
thorax -4.24597 1.3805 -1.08724
lowerneck -16.0974 11.7615 -2.76704
upperneck 18.6061 16.4927 1.34239
head 8.04409 7.715 2.71467
rclavicle 1.55052e-014 -5.56597e-015
rhumerus -39.9059 40.0901 -105.251
rradius 93.6169
rwrist -8.58042
rhand -34.3626 26.0475
rfingers 7.12502
rthumb -7.5296 -3.7985
lclavicle 1.55052e-014 -5.56597e-015
lhumerus -41.5511 -36.5074 111.928
lradius 88.4457
lwrist -0.133785
lhand -32.5818 9.69152
lfingers 7.12502
lthumb -5.8105 39.5919
rfemur -30.8431 5.10629 29.876
rtibia 39.764
rfoot -15.9265 -2.32888
rtoes 17.7078
lfemur -29.2164 3.96117 -12.1013
ltibia 40.7485
lfoot -16.7872 7.78488
ltoes 0.714625
130
root 8.16711 17.2128 -9.65658 123.643 -85.7147 -115.173
lowerback 10.2462 1.8661 3.83909
upperback 1.29896 2.90528 1.39666
thorax -4.26725 1.35503 -1.09747
lowerneck -16.1029 11.7248 -2.80907
upperneck 18.5192 16.4519 1.33274
head 8.01432 7.6958 2.7091
rclavicle 5.22804e-014 2.54444e-014
rhumerus -39.7907 40.0969 -105.197
rradius 93.5976
rwrist -8.61144
rhand -34.5325 26.0965
rfingers 7.12502
rthumb -7.69361 -3.74354
lclavicle 5.22804e-014 2.54444e-014
lhumerus -41.4019 -36.5315 111.93
lradius 88.4406
lwrist 0.0375995
lhand -32.6376 9.7847
lfingers 7.12502
lthumb -5.86438 39.6835
rfemur -31.0633 4.93519 29.902
rtibia 39.7779
rfoot -15.7959 -2.42283
rtoes 17.6673
lfemur -29.4253 3.9529 -12.1067
ltibia 40.8165
lfoot -17.2364 7.77524
ltoes -0.109511
131
root 8.19999 17.2121 -9.67037 120.319 -85.8527 -111.782
lowerback 10.3042 1.82736 3.83643
upperback 1.31743 2.85499 1.38835
thorax -4.28212 1.32983 -1.0998
lowerneck -16.1026 11.6857 -2.85679
upperneck 18.4383 16.4078 1.32839
head 7.98468 7.67509 2.70553
rclavicle -2.68359e-014 -2.66371e-014
rhumerus -39.6625 40.1194 -105.135
rradius 93.568
rwrist -8.64617
rhand -34.714 26.1382
rfingers 7.12502
rthumb -7.86872 -3.69537
lclavicle -2.68359e-014 -2.66371e-014
lhumerus -41.2536 -36.5633 111.925
lradius 88.449
lwrist 0.264239
lhand -32.6699 9.86307
lfingers 7.12502
lthumb -5.89549 39.761
rfemur -31.2816 4.76523 29.9321
rtibia 39.7937
rfoot -15.6611 -2.51869
rtoes 17.5915
lfemur -29.6284 3.96559 -12.1223
ltibia 40.9023
lfoot -17.6478 7.86293
ltoes -1.19912
132
root 8.23291 17.2108 -9.6841 116.861 -85.9736 -108.273
lowerback 10.3572 1.79292 3.82172
upperback 1.34216 2.80865 1.38584
thorax -4.28842 1.30699 -1.08951
lowerneck -16.0997 11.6439 -2.90054
upperneck 18.3617 16.3597 1.32113
head 7.95676 7.65218 2.70019
rclavicle -2.68359e-015 -1.59028e-015
rhumerus -39.5175 40.1562 -105.058
rradius 93.5322
rwrist -8.68592
rhand -34.9063 26.1562
rfingers 7.12502
rthumb -8.05432 -3.6703
lclavicle -2.68359e-015 -1.59028e-015
lhumerus -41.0894 -36.588 111.923
lradius 88.4481
lwrist 0.504221
lhand -32.7255 9.95413
lfingers 7.12502
lthumb -5.94921 39.8506
rfemur -31.4831 4.60116 29.9621
rtibia 39.8078
rfoot -15.5259 -2.6193
rtoes 17.5001
lfemur -29.8103 4.02466 -12.1588
ltibia 41.0177
lfoot -17.9938 8.04162
ltoes -2.46878
133
root 8.26581 17.2098 -9.69724 113.129 -86.0716 -104.507
lowerback 10.4072 1.75835 3.81556
upperback 1.37287 2.76273 1.38897
thorax -4.28657 1.28437 -1.07788
lowerneck -16.1016 11.6032 -2.92966
upperneck 18.3005 16.3109 1.31151
head 7.93638 7.62892 2.6933
rclavicle 9.83984e-015 1.59028e-014
rhumerus -39.3584 40.2031 -104.969
rradius 93.4914
rwrist -8.73542
rhand -35.0986 26.1447
rfingers 7.12502
rthumb -8.23993 -3.67464
lclavicle 9.83984e-015 1.59028e-014
lhumerus -40.9259 -36.5918 111.949
lradius 88.4283
lwrist 0.708731
lhand -32.7995 10.0505
lfingers 7.12502
lthumb -6.02064 39.945
rfemur -31.6606 4.42885 30.0002
rtibia 39.8144
rfoot -15.3758 -2.72058
rtoes 17.2586
lfemur -29.9654 4.10902 -12.2011
ltibia 41.1772
lfoot -18.2639 8.25538
ltoes -3.59759
134
root 8.29894 17.2089 -9.71023 109.316 -86.1461 -100.673
lowerback 10.4487 1.7278 3.80083
upperback 1.40848 2.72084 1.40206
thorax -4.27551 1.2641 -1.05117
lowerneck -16.1028 11.5639 -2.95275
upperneck 18.2499 16.2646 1.2931
head 7.92073 7.60575 2.68369
rclavicle 2.61402e-014 1.23246e-014
rhumerus -39.1883 40.2669 -104.864
rradius 93.4521
rwrist -8.80423
rhand -35.2894 26.1039
rfingers 7.12502
rthumb -8.42406 -3.70805
lclavicle 2.61402e-014 1.23246e-014
lhumerus -40.7568 -36.6015 111.974
lradius 88.411
lwrist 0.900571
lhand -32.9034 10.1511
lfingers 7.12502
lthumb -6.12097 40.0427
rfemur -31.82 4.26104 30.0418
rtibia 39.8121
rfoot -15.2159 -2.82025
rtoes 16.9482
lfemur -30.0962 4.26429 -12.2591
ltibia 41.3968
lfoot -18.4597 8.44476
ltoes -4.5002
135
root 8.33259 17.2078 -9.72313 105.404 -86.194 -96.7543
lowerback 10.4908 1.69916 3.79092
upperback 1.44524 2.68214 1.42081
thorax -4.26355 1.24533 -1.02169
lowerneck -16.0952 11.5271 -2.97842
upperneck 18.2002 16.2205 1.2828
head 7.90281 7.58442 2.67656
rclavicle 1.71949e-014 2.10712e-014
rhumerus -39.0116 40.3367 -104.751
rradius 93.4169
rwrist -8.8942
rhand -35.4737 26.0463
rfingers 7.12502
rthumb -8.60197 -3.75845
lclavicle 1.71949e-014 2.10712e-014
lhumerus -40.59 -36.6106 112
lradius 88.3911
lwrist 1.05346
lhand -33.0774 10.2774
lfingers 7.12502
lthumb -6.28896 40.164
rfemur -31.9594 4.09615 30.0924
rtibia 39.7994
rfoot -15.0465 -2.92001
rtoes 16.5688
lfemur -30.1973 4.50404 -12.3343
ltibia 41.6896
lfoot -18.5897 8.5875
ltoes -5.25201
136
root 8.36693 17.2064 -9.73607 101.475 -86.2128 -92.8288
lowerback 10.5315 1.67335 3.78655
upperback 1.47987 2.64797 1.44364
thorax -4.25267 1.22866 -0.991609
lowerneck -16.09 11.4948 -2.97961
upperneck 18.173 16.1791 1.26489
head 7.89551 7.56403 2.66542
rclavicle -3.02153e-014 7.95139e-016
rhumerus -38.8321 40.407 -104.636
rradius 93.3892
rwrist -9.00189
rhand -35.6381 25.9761
rfingers 7.12502
rthumb -8.76054 -3.82213
lclavicle -3.02153e-014 7.95139e-016
lhumerus -40.4278 -36.6341 112.002
lradius 88.3849
lwrist 1.18035
lhand -33.2341 10.3924
lfingers 7.12502
lthumb -6.44022 40.2745
rfemur -32.0659 3.93554 30.154
rtibia 39.7356
rfoot -14.8478 -3.0105
rtoes 16.1824
lfemur -30.2515 4.83811 -12.4177
ltibia 42.0235
lfoot -18.681 8.59832
ltoes -5.65817
137
root 8.40223 17.2046 -9.74919 97.6058 -86.1985 -88.9664
lowerback 10.5681 1.64927 3.797
upperback 1.50844 2.618 1.4686
thorax -4.24509 1.21376 -0.968128
lowerneck -16.0782 11.4637 -2.95644
upperneck 18.155 16.1352 1.23854
head 7.89305 7.54274 2.64821
rclavicle -2.18663e-014 -1.70955e-014
rhumerus -38.6515 40.4753 -104.524
rradius 93.372
rwrist -9.12057
rhand -35.7843 25.9124
rfingers 7.12502
rthumb -8.9017 -3.87979
lclavicle -2.18663e-014 -1.70955e-014
lhumerus -40.267 -36.6635 112
lradius 88.373
lwrist 1.28525
lhand -33.3962 10.4949
lfingers 7.12502
lthumb -6.59673 40.3721
rfemur -32.1675 3.7803 30.2331
rtibia 39.6639
rfoot -14.6502 -3.09088
rtoes 15.8898
lfemur -30.2764 5.21163 -12.4991
ltibia 42.4408
lfoot -18.7588 8.56255
ltoes -5.92955
138
root 8.43824 17.2133 -9.76297 93.8955 -86.154 -85.2774
lowerback 10.6065 1.62831 3.82676
upperback 1.53365 2.5946 1.49429
thorax -4.24086 1.2017 -0.955683
lowerneck -16.0541 11.432 -2.93121
upperneck 18.1482 16.0888 1.21673
head 7.89196 7.52052 2.63157
rclavicle 3.35946e-014 7.55382e-015
rhumerus -38.4728 40.5347 -104.412
rradius 93.366
rwrist -9.22201
rhand -35.9179 25.8579
rfingers 7.12502
rthumb -9.0306 -3.92875
lclavicle 3.35946e-014 7.55382e-015
lhumerus -40.1196 -36.7201 111.983
lradius 88.3757
lwrist 1.36854
lhand -33.5946 10.6046
lfingers 7.12502
lthumb -6.78819 40.4758
rfemur -32.2214 3.62443 30.3239
rtibia 39.5563
rfoot -14.4648 -3.1563
rtoes 15.733
lfemur -30.2242 5.62582 -12.5751
ltibia 42.9044
lfoot -18.8499 8.42636
ltoes -5.91198
